Coordinates
version=1
nRows=27
nColumns=38
inDegrees=no

Units are S.I. units (second, meters, Newtons, ...)
If the header above contains a line with 'inDegrees', this indicates whether rotational values are in degrees (yes) or radians (no).

endheader
time	pelvis_tilt	pelvis_list	pelvis_rotation	pelvis_tx	pelvis_ty	pelvis_tz	hip_flexion_r	hip_adduction_r	hip_rotation_r	knee_angle_r	ankle_angle_r	subtalar_angle_r	mtp_angle_r	hip_flexion_l	hip_adduction_l	hip_rotation_l	knee_angle_l	ankle_angle_l	subtalar_angle_l	mtp_angle_l	lumbar_extension	lumbar_bending	lumbar_rotation	arm_flex_r	arm_add_r	arm_rot_r	elbow_flex_r	pro_sup_r	wrist_flex_r	wrist_dev_r	arm_flex_l	arm_add_l	arm_rot_l	elbow_flex_l	pro_sup_l	wrist_flex_l	wrist_dev_l
1.54	-3.04582	1.38866	-1.59003	0.968975	1.05064	0.936362	0.331358	-0.161885	-0.49208	0.401438	0.167489	0	0	-0.398079	0.0703991	-0.163482	0.0521926	0.128587	0	0	-0.128132	-0.00544173	0.0605092	0.34839	-0.477449	-0.255117	1.52337	1.5708	0	0	0.501893	-0.540571	0.14787	1.72641	0.942147	0	0
1.55	-3.03462	1.40083	-1.60522	0.970607	1.06181	0.933103	0.337955	-0.15026	-0.507847	0.339922	0.171475	0	0	-0.400639	0.0709285	-0.168905	0.0492331	0.138962	0	0	-0.116355	-0.00910958	0.0650324	0.349648	-0.477465	-0.255882	1.52294	1.5708	0	0	0.50493	-0.539516	0.148787	1.72372	0.945111	0	0
1.56	-3.01947	1.41371	-1.62459	0.972356	1.07317	0.929659	0.345836	-0.138408	-0.515758	0.28841	0.176572	0	0	-0.401359	0.0714525	-0.174235	0.0484342	0.149647	0	0	-0.103175	-0.0130624	0.0696327	0.350835	-0.477518	-0.255239	1.5218	1.5708	0	0	0.506714	-0.538421	0.148307	1.7222	0.94732	0	0
1.57	-3.00668	1.42592	-1.6418	0.974135	1.08467	0.926223	0.3526	-0.125736	-0.514279	0.243044	0.179788	0	0	-0.401354	0.0708376	-0.180305	0.0507977	0.161328	0	0	-0.0902809	-0.0159806	0.0746985	0.351935	-0.478186	-0.253915	1.52013	1.5708	0	0	0.508255	-0.536772	0.147944	1.72009	0.951072	0	0
1.58	-2.99797	1.43626	-1.65371	0.975747	1.09642	0.922946	0.355619	-0.113581	-0.504973	0.203149	0.1782	0	0	-0.402252	0.0688166	-0.187002	0.0558837	0.173247	0	0	-0.0788344	-0.0176294	0.0783768	0.353303	-0.47904	-0.251744	1.51797	1.5708	0	0	0.509026	-0.534691	0.147149	1.71709	0.955613	0	0
1.59	-2.99679	1.44306	-1.65603	0.977042	1.10849	0.91999	0.354098	-0.10359	-0.493916	0.17423	0.172714	0	0	-0.406321	0.0652531	-0.192757	0.0629327	0.184762	0	0	-0.0707832	-0.0177446	0.079867	0.355074	-0.480386	-0.248729	1.5162	1.5708	0	0	0.50929	-0.532271	0.146241	1.71314	0.960012	0	0
1.6	-3.00003	1.44426	-1.64724	0.975669	1.12154	0.917887	0.345922	-0.103696	-0.496181	0.165474	0.173301	0	0	-0.41909	0.0629137	-0.188418	0.0661462	0.19111	0	0	-0.066501	-0.0131863	0.0752944	0.354988	-0.487884	-0.244654	1.51646	1.5708	0	0	0.504769	-0.523416	0.141931	1.70867	0.96672	0	0
1.61	-3.00915	1.44699	-1.63849	0.978361	1.13389	0.915006	0.344585	-0.0965374	-0.484526	0.172853	0.172581	0	0	-0.423455	0.0543513	-0.196727	0.0822892	0.205574	0	0	-0.0632324	-0.0149436	0.0759962	0.356633	-0.485027	-0.242881	1.51562	1.5708	0	0	0.508685	-0.526503	0.143161	1.70775	0.967736	0	0
1.62	-3.0347	1.44499	-1.60169	0.978872	1.14621	0.912679	0.343604	-0.0873667	-0.452281	0.202903	0.153437	0	0	-0.432126	0.0449487	-0.184214	0.0981301	0.208379	0	0	-0.0651318	-0.012321	0.0668925	0.355833	-0.487343	-0.240146	1.51629	1.5708	0	0	0.511757	-0.524388	0.144462	1.70639	0.968735	0	0
1.63	-3.04978	1.44092	-1.58697	0.978943	1.16091	0.911237	0.327256	-0.0989157	-0.495204	0.224544	0.173617	0	0	-0.448012	0.036764	-0.197866	0.110257	0.221065	0	0	-0.0647215	-0.00793287	0.0664206	0.355438	-0.49049	-0.237959	1.51655	1.5708	0	0	0.505435	-0.521889	0.141366	1.70509	0.970237	0	0
1.64	-3.08084	1.43598	-1.54959	0.979212	1.17469	0.909803	0.316572	-0.100255	-0.51307	0.249613	0.174648	0	0	-0.459336	0.0248302	-0.199436	0.12976	0.22721	0	0	-0.0672806	-0.0025381	0.0607696	0.354232	-0.492478	-0.236517	1.51699	1.5708	0	0	0.503112	-0.519951	0.140738	1.70337	0.971623	0	0
1.65	-3.12823	1.43101	-1.49725	0.979931	1.1885	0.90877	0.304074	-0.0942006	-0.525788	0.259363	0.158019	0	0	-0.467867	0.00940124	-0.203591	0.153968	0.231504	0	0	-0.0697004	0.00546581	0.0565257	0.352535	-0.492861	-0.236246	1.5169	1.5708	0	0	0.500236	-0.51836	0.14054	1.70048	0.973373	0	0
1.66	3.09335	1.42682	-1.43448	0.981408	1.20228	0.908066	0.292668	-0.0809503	-0.528049	0.25841	0.118821	0	0	-0.471495	-0.00888338	-0.214943	0.185245	0.234426	0	0	-0.0710706	0.0158267	0.056279	0.349666	-0.491479	-0.2379	1.51725	1.5708	0	0	0.496803	-0.516597	0.140101	1.69665	0.980309	0	0
1.67	3.04345	1.4235	-1.38616	0.983448	1.21613	0.907532	0.285036	-0.0699278	-0.529159	0.263386	0.0752954	0	0	-0.471349	-0.0260136	-0.228423	0.221377	0.233246	0	0	-0.0717414	0.0240196	0.0593001	0.344958	-0.488379	-0.242036	1.51875	1.5708	0	0	0.493702	-0.51562	0.139883	1.69484	0.981358	0	0
1.68	3.00777	1.41916	-1.35267	0.985687	1.23	0.907379	0.279216	-0.0633805	-0.532779	0.280185	0.0411979	0	0	-0.469086	-0.0425307	-0.24065	0.262883	0.227146	0	0	-0.0740387	0.0300647	0.0630655	0.339663	-0.484351	-0.246766	1.52041	1.5708	0	0	0.491045	-0.515251	0.139985	1.69457	0.981149	0	0
1.69	2.97942	1.41232	-1.32631	0.987903	1.2439	0.907789	0.272161	-0.058322	-0.532882	0.303105	0.0141004	0	0	-0.464959	-0.0606182	-0.253319	0.312406	0.215242	0	0	-0.0792973	0.0357591	0.0668081	0.334346	-0.480269	-0.251592	1.52206	1.5708	0	0	0.488444	-0.514723	0.140676	1.69421	0.981092	0	0
1.7	2.96052	1.40289	-1.30883	0.99005	1.25782	0.908844	0.262287	-0.05429	-0.5283	0.328402	-0.00502299	0	0	-0.458394	-0.0800817	-0.264669	0.37015	0.195499	0	0	-0.0876481	0.0406776	0.0700586	0.328978	-0.476398	-0.255627	1.52329	1.5708	0	0	0.485736	-0.514064	0.141203	1.69371	0.981056	0	0
1.71	2.94248	1.39313	-1.29314	0.99236	1.27174	0.91038	0.252023	-0.0497365	-0.51926	0.355156	-0.0139979	0	0	-0.445761	-0.10138	-0.274982	0.436291	0.162254	0	0	-0.0964754	0.0454769	0.0741002	0.323122	-0.472616	-0.258444	1.52411	1.5708	0	0	0.482047	-0.513421	0.141029	1.69346	0.981375	0	0
1.72	2.92659	1.38469	-1.28149	0.99489	1.28523	0.912156	0.243881	-0.0452994	-0.507242	0.383768	-0.0123796	0	0	-0.424833	-0.122602	-0.281134	0.509909	0.114912	0	0	-0.105018	0.0494279	0.0797282	0.318079	-0.469599	-0.259154	1.52417	1.5708	0	0	0.47831	-0.512797	0.140004	1.69328	0.982801	0	0
1.73	2.91113	1.3776	-1.2715	0.997542	1.29817	0.913966	0.236949	-0.0405187	-0.49506	0.410931	-0.00615989	0	0	-0.395516	-0.143963	-0.283447	0.589961	0.0537179	0	0	-0.113289	0.0529292	0.0867013	0.314428	-0.467884	-0.258703	1.52394	1.5708	0	0	0.475846	-0.511526	0.138454	1.69291	0.984935	0	0
1.74	2.89136	1.37112	-1.2565	1.00017	1.31083	0.915613	0.228053	-0.0334654	-0.485773	0.431102	-0.00183222	0	0	-0.360261	-0.166771	-0.280594	0.673441	-0.0207935	0	0	-0.12083	0.0571183	0.0931152	0.311764	-0.467658	-0.256802	1.52413	1.5708	0	0	0.474876	-0.511343	0.138315	1.69303	0.987047	0	0
1.75	2.86963	1.36667	-1.23788	1.00266	1.32343	0.916886	0.21804	-0.0249973	-0.480158	0.444407	-0.00017087	0	0	-0.319292	-0.189072	-0.27062	0.75721	-0.102117	0	0	-0.125441	0.0611042	0.0981013	0.308825	-0.468852	-0.253728	1.5247	1.5708	0	0	0.474909	-0.512787	0.140325	1.69364	0.989364	0	0
1.76	2.84886	1.36324	-1.21844	1.00495	1.33595	0.917886	0.205823	-0.0150865	-0.476153	0.451196	0.00255701	0	0	-0.274664	-0.20957	-0.254314	0.839927	-0.183491	0	0	-0.128486	0.0646584	0.101812	0.305973	-0.470866	-0.250826	1.52513	1.5708	0	0	0.47657	-0.515164	0.144349	1.69415	0.991357	0	0
1.77	2.83679	1.36029	-1.20652	1.00691	1.3482	0.918779	0.191644	-0.00629525	-0.472822	0.454666	0.00892933	0	0	-0.228432	-0.225392	-0.232191	0.919839	-0.253973	0	0	-0.13209	0.0665975	0.104928	0.303779	-0.473622	-0.249057	1.52548	1.5708	0	0	0.479572	-0.517391	0.14912	1.69506	0.991878	0	0
1.78	2.84566	1.35717	-1.21166	1.00945	1.36011	0.91972	0.177519	0.00681642	-0.462576	0.457301	0.0131643	0	0	-0.182786	-0.24386	-0.205127	0.991427	-0.310364	0	0	-0.138321	0.06256	0.106198	0.30188	-0.475071	-0.248017	1.52549	1.5708	0	0	0.484459	-0.519512	0.153557	1.69584	0.991186	0	0
1.79	2.85159	1.35305	-1.21639	1.01106	1.37192	0.921171	0.158022	0.0125482	-0.459639	0.455411	0.0230005	0	0	-0.141029	-0.251281	-0.180054	1.05456	-0.34653	0	0	-0.145969	0.0612731	0.108849	0.300805	-0.476805	-0.249014	1.52531	1.5708	0	0	0.48804	-0.520043	0.156846	1.69712	0.989634	0	0
1.8	2.86277	1.34928	-1.22711	1.0126	1.38348	0.922966	0.1384	0.0169673	-0.454817	0.452893	0.0296277	0	0	-0.101804	-0.254008	-0.157538	1.11085	-0.353161	0	0	-0.154365	0.0586184	0.112149	0.299821	-0.477196	-0.251528	1.52483	1.5708	0	0	0.490926	-0.519733	0.158925	1.69875	0.987588	0	0
